<svg width="828" height="150" viewBox="0 0 828 150" fill="none" xmlns="http://www.w3.org/2000/svg">
<rect width="828" height="150" fill="#F5F5F5"/>
<rect width="149" height="149" rx="30" fill="#221F20"/>
<path d="M68.6094 47.7812L63.5 74.0781H74.4688C79.625 74.0781 83.7344 72.5938 86.7969 69.625C89.8906 66.625 91.4375 62.6406 91.4375 57.6719C91.4375 54.2969 90.4688 51.8125 88.5312 50.2188C86.5938 48.5938 83.5938 47.7812 79.5312 47.7812H68.6094ZM60.6406 40H81.2656C87.7031 40 92.6094 41.4375 95.9844 44.3125C99.3594 47.1875 101.047 51.3438 101.047 56.7812C101.047 64.5625 98.5469 70.6875 93.5469 75.1562C88.5469 79.625 81.6719 81.8594 72.9219 81.8594H62L56.5156 109.984H47L60.6406 40Z" fill="white"/>
<rect width="149" height="149" rx="30" fill="#221F20"/>
<path d="M68.6094 47.7812L63.5 74.0781H74.4688C79.625 74.0781 83.7344 72.5938 86.7969 69.625C89.8906 66.625 91.4375 62.6406 91.4375 57.6719C91.4375 54.2969 90.4688 51.8125 88.5312 50.2188C86.5938 48.5938 83.5938 47.7812 79.5312 47.7812H68.6094ZM60.6406 40H81.2656C87.7031 40 92.6094 41.4375 95.9844 44.3125C99.3594 47.1875 101.047 51.3438 101.047 56.7812C101.047 64.5625 98.5469 70.6875 93.5469 75.1562C88.5469 79.625 81.6719 81.8594 72.9219 81.8594H62L56.5156 109.984H47L60.6406 40Z" fill="white"/>
<rect x="175" y="1" width="149" height="149" rx="30" fill="#221F20"/>
<path d="M243.609 48.7812L238.5 75.0781H249.469C254.625 75.0781 258.734 73.5938 261.797 70.625C264.891 67.625 266.438 63.6406 266.438 58.6719C266.438 55.2969 265.469 52.8125 263.531 51.2188C261.594 49.5938 258.594 48.7812 254.531 48.7812H243.609ZM235.641 41H256.266C262.703 41 267.609 42.4375 270.984 45.3125C274.359 48.1875 276.047 52.3438 276.047 57.7812C276.047 65.5625 273.547 71.6875 268.547 76.1562C263.547 80.625 256.672 82.8594 247.922 82.8594H237L231.516 110.984H222L235.641 41Z" fill="#D6FFF1"/>
<rect x="343" y="1" width="149" height="149" rx="30" fill="#221F20"/>
<path d="M411.609 48.7812L406.5 75.0781H417.469C422.625 75.0781 426.734 73.5938 429.797 70.625C432.891 67.625 434.438 63.6406 434.438 58.6719C434.438 55.2969 433.469 52.8125 431.531 51.2188C429.594 49.5938 426.594 48.7812 422.531 48.7812H411.609ZM403.641 41H424.266C430.703 41 435.609 42.4375 438.984 45.3125C442.359 48.1875 444.047 52.3438 444.047 57.7812C444.047 65.5625 441.547 71.6875 436.547 76.1562C431.547 80.625 424.672 82.8594 415.922 82.8594H405L399.516 110.984H390L403.641 41Z" fill="#4FF8C9"/>
<rect x="343" y="1" width="149" height="149" rx="30" fill="#221F20"/>
<path d="M411.609 48.7812L406.5 75.0781H417.469C422.625 75.0781 426.734 73.5938 429.797 70.625C432.891 67.625 434.438 63.6406 434.438 58.6719C434.438 55.2969 433.469 52.8125 431.531 51.2188C429.594 49.5938 426.594 48.7812 422.531 48.7812H411.609ZM403.641 41H424.266C430.703 41 435.609 42.4375 438.984 45.3125C442.359 48.1875 444.047 52.3438 444.047 57.7812C444.047 65.5625 441.547 71.6875 436.547 76.1562C431.547 80.625 424.672 82.8594 415.922 82.8594H405L399.516 110.984H390L403.641 41Z" fill="#4FF8C9"/>
<rect x="511" y="1" width="149" height="149" rx="30" fill="#221F20"/>
<path d="M579.609 48.7812L574.5 75.0781H585.469C590.625 75.0781 594.734 73.5938 597.797 70.625C600.891 67.625 602.438 63.6406 602.438 58.6719C602.438 55.2969 601.469 52.8125 599.531 51.2188C597.594 49.5938 594.594 48.7812 590.531 48.7812H579.609ZM571.641 41H592.266C598.703 41 603.609 42.4375 606.984 45.3125C610.359 48.1875 612.047 52.3438 612.047 57.7812C612.047 65.5625 609.547 71.6875 604.547 76.1562C599.547 80.625 592.672 82.8594 583.922 82.8594H573L567.516 110.984H558L571.641 41Z" fill="#4FF8C9"/>
<rect x="511" y="1" width="149" height="149" rx="30" fill="#4FF8C9"/>
<path d="M579.609 48.7812L574.5 75.0781H585.469C590.625 75.0781 594.734 73.5938 597.797 70.625C600.891 67.625 602.438 63.6406 602.438 58.6719C602.438 55.2969 601.469 52.8125 599.531 51.2188C597.594 49.5938 594.594 48.7812 590.531 48.7812H579.609ZM571.641 41H592.266C598.703 41 603.609 42.4375 606.984 45.3125C610.359 48.1875 612.047 52.3438 612.047 57.7812C612.047 65.5625 609.547 71.6875 604.547 76.1562C599.547 80.625 592.672 82.8594 583.922 82.8594H573L567.516 110.984H558L571.641 41Z" fill="#D6FFF1"/>
<rect x="679" y="1" width="149" height="149" rx="30" fill="#221F20"/>
<path d="M747.609 48.7812L742.5 75.0781H753.469C758.625 75.0781 762.734 73.5938 765.797 70.625C768.891 67.625 770.438 63.6406 770.438 58.6719C770.438 55.2969 769.469 52.8125 767.531 51.2188C765.594 49.5938 762.594 48.7812 758.531 48.7812H747.609ZM739.641 41H760.266C766.703 41 771.609 42.4375 774.984 45.3125C778.359 48.1875 780.047 52.3438 780.047 57.7812C780.047 65.5625 777.547 71.6875 772.547 76.1562C767.547 80.625 760.672 82.8594 751.922 82.8594H741L735.516 110.984H726L739.641 41Z" fill="#4FF8C9"/>
<rect x="679" y="1" width="149" height="149" rx="30" fill="#D6FFF1"/>
<path d="M747.609 48.7812L742.5 75.0781H753.469C758.625 75.0781 762.734 73.5938 765.797 70.625C768.891 67.625 770.438 63.6406 770.438 58.6719C770.438 55.2969 769.469 52.8125 767.531 51.2188C765.594 49.5938 762.594 48.7812 758.531 48.7812H747.609ZM739.641 41H760.266C766.703 41 771.609 42.4375 774.984 45.3125C778.359 48.1875 780.047 52.3438 780.047 57.7812C780.047 65.5625 777.547 71.6875 772.547 76.1562C767.547 80.625 760.672 82.8594 751.922 82.8594H741L735.516 110.984H726L739.641 41Z" fill="#4FF8C9"/>
</svg>
